<svg width="153" height="62" viewBox="0 0 153 62" fill="none" xmlns="http://www.w3.org/2000/svg">
<path d="M8.72315 14.9657L17.5815 14.973C17.6155 14.973 17.6423 14.9997 17.6423 15.0337V21.7215C17.6423 21.7677 17.6046 21.8053 17.5585 21.8053L8.72193 21.8126C8.68792 21.8126 8.6612 21.8393 8.6612 21.8733L8.65391 34.2092C8.65391 34.2384 8.63083 34.2615 8.60168 34.2615C5.88412 34.3028 3.19167 34.2987 0.524313 34.2493C0.490303 34.2481 0.462366 34.2202 0.462366 34.1862L0.455078 2.82654C0.455078 2.79253 0.4818 2.76581 0.51581 2.76581H18.4391C18.4852 2.76581 18.5229 2.80346 18.5229 2.84962V9.49493C18.5229 9.55201 18.4767 9.59817 18.4196 9.59817H8.69885C8.67456 9.59817 8.65391 9.61882 8.65391 9.64311L8.6612 14.9062C8.6612 14.939 8.68914 14.9657 8.72315 14.9657Z" fill="black"/>
<path d="M43.9773 12.84L48.1533 12.8546C48.1873 12.8546 48.214 12.8813 48.214 12.9153L48.2213 18.9606C48.2213 19.0055 48.1848 19.0419 48.1387 19.0419H43.97C43.936 19.0419 43.9093 19.0687 43.9093 19.1027V34.1934C43.9093 34.2408 43.8716 34.2784 43.8243 34.2784L36.3724 34.2626C36.3372 34.2626 36.3093 34.2359 36.3093 34.2019L36.2874 19.1403C36.2874 19.0857 36.2413 19.0407 36.1854 19.0407L33.8812 19.0213C33.8472 19.0201 33.8193 18.9934 33.8193 18.9594L33.8047 12.9153C33.8047 12.8813 33.8314 12.8546 33.8642 12.8546L36.217 12.8473C36.2558 12.8473 36.2874 12.8157 36.2874 12.7768L36.3093 6.49348C36.3093 6.45947 36.3372 6.43153 36.3712 6.43153L43.8036 6.40967C43.8619 6.40967 43.9093 6.45825 43.9093 6.51777L43.9166 12.778C43.9166 12.812 43.9433 12.84 43.9773 12.84Z" fill="black"/>
<path d="M53.7037 31.7484C52.0445 30.2131 50.976 28.336 50.4983 26.1173C50.0667 24.1148 50.11 22.2029 50.6282 20.3818C50.8444 19.6181 51.1574 18.8736 51.5672 18.148C52.5737 16.3665 53.9572 14.9539 55.7176 13.9101C56.3994 13.5061 57.1347 13.1704 57.9234 12.9032C59.1283 12.4951 60.3984 12.2437 61.7337 12.1489C62.9451 12.0631 64.0691 12.0675 65.1056 12.1623C67.8636 12.4149 70.2698 13.4555 72.3242 15.2839C74.0806 16.8475 75.2102 18.7744 75.713 21.0644C75.8815 21.8304 75.9689 22.6333 75.9754 23.473C76.0045 27.0926 74.6101 30.0515 71.7922 32.3496C70.2893 33.5764 68.5053 34.3736 66.4405 34.7413C64.7505 35.0425 63.1071 35.1227 61.5102 34.9818C60.6284 34.904 59.8283 34.7834 59.1101 34.6198C57.0711 34.155 55.269 33.1978 53.7037 31.7484ZM68.0948 23.569C68.0948 20.8069 65.8562 18.5683 63.0941 18.5683C60.332 18.5683 58.0934 20.8069 58.0934 23.569C58.0934 26.3311 60.332 28.5697 63.0941 28.5697C65.8562 28.5697 68.0948 26.3311 68.0948 23.569Z" fill="black"/>
<path d="M26.5 8.88514C28.8473 8.88514 30.7501 6.98233 30.7501 4.6351C30.7501 2.28787 28.8473 0.385071 26.5 0.385071C24.1528 0.385071 22.25 2.28787 22.25 4.6351C22.25 6.98233 24.1528 8.88514 26.5 8.88514Z" fill="black"/>
<path d="M30.2506 12.8474H22.7392C22.709 12.8474 22.6846 12.8719 22.6846 12.9021V34.2142C22.6846 34.2444 22.709 34.2688 22.7392 34.2688H30.2506C30.2808 34.2688 30.3052 34.2444 30.3052 34.2142V12.9021C30.3052 12.8719 30.2808 12.8474 30.2506 12.8474Z" fill="black"/>
<path d="M72.0345 54.2277C71.2709 53.5426 70.711 52.7397 70.3547 51.819C70.1199 51.2109 69.9409 50.4234 69.8178 49.4566C69.664 48.2484 69.6777 47.0427 69.8591 45.8394C69.9903 44.9632 70.2053 44.1858 70.5041 43.5072C71.4831 41.2844 73.2387 39.9338 75.7708 39.4552C76.9506 39.2325 78.2236 39.209 79.5896 39.3847C82.8319 39.8026 84.7753 41.6051 85.4199 44.7923C85.8952 47.1414 85.7511 49.3557 84.9875 51.4352C84.4603 52.8701 83.5477 53.9758 82.2497 54.7524C81.6124 55.1338 80.8605 55.4257 79.9941 55.6282C78.1997 56.0476 76.3745 56.0189 74.5185 55.5419C73.5654 55.2966 72.7374 54.8585 72.0345 54.2277ZM75.308 52.7009C75.6084 52.8823 75.9145 53.007 76.2263 53.075C76.9834 53.2394 77.7984 53.2596 78.6714 53.1357C79.4034 53.0312 80.0415 52.7167 80.5856 52.1919C80.9014 51.8875 81.1687 51.519 81.3873 51.0866C81.5946 50.6744 81.7464 50.2388 81.8428 49.7797C82.0477 48.7998 82.1173 47.8152 82.0517 46.8256C82.0039 46.1074 81.929 45.5227 81.827 45.0717C81.6829 44.4417 81.4407 43.8955 81.1006 43.4331C80.5484 42.6849 79.8726 42.2371 79.0734 42.0898C78.2321 41.9351 77.5741 41.8946 77.0996 41.9683C75.2428 42.2582 74.0812 43.2829 73.6148 45.0425C73.3079 46.2029 73.2221 47.4212 73.3573 48.6974C73.4415 49.4926 73.5419 50.0845 73.6585 50.4732C73.8375 51.07 74.1375 51.6032 74.5586 52.0729C74.7869 52.328 75.0367 52.5373 75.308 52.7009Z" fill="#064E43"/>
<path d="M20.8969 44.3116C20.3948 45.1254 20.1098 46.0405 20.0418 47.0567C20.0029 47.6292 20.0211 48.1867 20.0964 48.7293C20.175 49.3026 20.3232 49.8354 20.541 50.3278C21.3216 52.0971 22.7646 53.0502 24.87 53.187C25.751 53.2437 26.594 53.0955 27.3989 52.7425C27.445 52.723 27.4742 52.6769 27.4742 52.6271L27.4803 49.1034C27.4803 49.0293 27.4195 48.9686 27.3454 48.9686L24.3501 48.971C24.0878 48.971 23.9274 48.8418 23.8691 48.5835C23.7404 48.0062 23.746 47.4337 23.8861 46.866C23.9428 46.6393 24.0886 46.5255 24.3234 46.5247C26.1624 46.519 28.0009 46.5235 29.8391 46.5381C30.1355 46.5405 30.3529 46.5915 30.4914 46.6911C30.6298 46.7923 30.7302 46.9264 30.7926 47.0932C30.8315 47.1968 30.8529 47.3576 30.857 47.5754C30.912 50.1836 30.9104 52.3692 30.8521 54.132C30.8367 54.5968 30.5918 54.9098 30.1172 55.0709C28.7917 55.5204 27.3969 55.7945 25.9328 55.8932C24.6809 55.9783 23.474 55.8791 22.312 55.5957C19.2753 54.8572 17.4153 52.9927 16.7319 50.0022C16.4056 48.573 16.4019 47.1235 16.721 45.6538C16.908 44.7971 17.1793 44.0371 17.5348 43.3739C18.2514 42.0378 19.3073 41.0159 20.7026 40.3082C21.5172 39.8944 22.382 39.613 23.297 39.464C24.0355 39.3433 24.8429 39.2944 25.719 39.317C26.8503 39.347 27.9629 39.5312 29.0569 39.8697C29.635 40.0486 30.0893 40.2604 30.4197 40.5049C30.6391 40.6677 30.7804 40.8851 30.8436 41.1572C30.8728 41.2811 30.8966 41.5301 30.9153 41.9042C30.9371 42.3285 30.8983 42.7124 30.7987 43.0557C30.7347 43.2784 30.61 43.3824 30.4245 43.3679C30.3444 43.3614 30.2156 43.3087 30.0383 43.21C28.358 42.2763 26.6049 41.8682 24.7789 41.9856C23.9716 42.0374 23.2193 42.2739 22.5221 42.6949C21.8557 43.0974 21.3139 43.6363 20.8969 44.3116Z" fill="#064E43"/>
<path d="M58.132 54.1025C56.9708 53.0093 56.2586 51.6266 55.9955 49.9545C55.742 48.3439 55.7562 46.8142 56.038 45.3656C56.3627 43.6926 57.117 42.3083 58.3008 41.2127C58.8985 40.6604 59.577 40.2272 60.3366 39.913C61.114 39.5907 61.9241 39.3972 62.7671 39.3324C63.6149 39.2668 64.4226 39.3013 65.1903 39.4357C66.1353 39.6009 66.9953 39.9515 67.7702 40.4876C67.9751 40.6301 68.1002 40.858 68.1455 41.1714C68.2208 41.6986 68.2314 42.2253 68.1771 42.7517C68.152 42.9938 68.0961 43.1691 68.0095 43.2776C67.8459 43.4825 67.6192 43.4788 67.3293 43.2667C66.2766 42.495 65.1405 42.0824 63.921 42.0289C63.0675 41.9917 62.3047 42.1913 61.6326 42.6278C61.0334 43.0173 60.5475 43.5898 60.175 44.3453C59.9086 44.8862 59.7268 45.4579 59.6297 46.0603C59.543 46.5948 59.5005 47.1875 59.5021 47.8386C59.5029 48.5358 59.5936 49.2188 59.7742 49.8877C59.9783 50.6456 60.2674 51.259 60.6415 51.7279C61.3128 52.5692 62.244 53.0308 63.4351 53.1126C64.6789 53.1976 65.8454 52.9166 66.9345 52.2696C67.0438 52.2048 67.2694 52.0894 67.6111 51.9234C67.9301 51.7679 68.118 51.8623 68.1747 52.2064C68.284 52.8761 68.3034 53.4413 68.233 53.9021C68.1779 54.2632 68.0103 54.5495 67.7301 54.7608C67.5981 54.8596 67.3151 54.9985 66.8811 55.1774C64.864 56.0115 62.7817 56.1249 60.6342 55.5175C59.6835 55.2495 58.8495 54.7778 58.132 54.1025Z" fill="#064E43"/>
<path d="M0.274278 55.6221C0.0710282 55.5395 -0.0192601 55.3954 0.00341319 55.1897C0.007462 55.1484 0.0479501 55.0018 0.124877 54.75C0.215571 54.4512 0.356469 54.0386 0.547573 53.5123C1.83914 49.9517 3.138 46.3945 4.44414 42.8404C4.47249 42.7627 4.64294 42.2841 4.95551 41.4047C5.16443 40.8168 5.34986 40.3431 5.51182 39.9836C5.61547 39.7544 5.81588 39.6261 6.11306 39.5985C6.96412 39.5216 7.9658 39.5058 9.11809 39.5512C9.39179 39.5617 9.62135 39.6342 9.80679 39.7686C9.94688 39.8698 10.0679 40.0601 10.17 40.3395C11.8737 45.0061 13.5766 49.6732 15.2788 54.3406C15.363 54.5698 15.4395 54.801 15.5083 55.0342C15.6152 55.3954 15.4881 55.6002 15.1269 55.6488C14.1763 55.7759 13.2309 55.7755 12.2907 55.6476C12.1369 55.6265 12.0336 55.5427 11.981 55.3962L10.7858 52.0814C10.7736 52.0462 10.7408 52.0231 10.7044 52.0231H4.49637C4.45994 52.0231 4.42714 52.0462 4.41378 52.0814L3.25865 55.3694C3.20683 55.5176 3.10318 55.6067 2.94771 55.6367C2.64243 55.6974 2.33512 55.7322 2.02579 55.7411C1.61929 55.7525 1.32656 55.7585 1.14761 55.7593C0.79455 55.761 0.503441 55.7152 0.274278 55.6221ZM9.90518 49.4894C9.93797 49.4894 9.96226 49.4566 9.95133 49.4262L7.62894 42.7372C7.59898 42.6513 7.56901 42.6513 7.53905 42.7372L5.21301 49.4128C5.19722 49.4566 5.23002 49.5027 5.27739 49.5027L9.90518 49.4894Z" fill="#064E43"/>
<path d="M49.5506 38.2577C49.387 38.2091 49.3615 38.118 49.4741 37.9844C50.3511 36.9512 51.2697 35.9568 52.2301 35.0013C52.4204 34.8118 52.7233 34.7017 53.1387 34.6709C53.7913 34.6223 54.4387 34.6583 55.0809 34.779C55.208 34.8033 55.3303 34.86 55.4477 34.949C55.5315 35.0122 55.5485 35.1312 55.4866 35.2163C55.3489 35.4049 55.1971 35.5693 55.0311 35.7094C54.1768 36.4333 53.3217 37.1564 52.4658 37.8788C52.2026 38.1006 51.9293 38.2476 51.6459 38.3197C51.4548 38.3691 51.1552 38.4006 50.747 38.4144C50.3422 38.4282 49.9434 38.3759 49.5506 38.2577Z" fill="#064E43"/>
<path d="M52.2069 39.5234H50.1128C49.7399 39.5234 49.4375 39.8257 49.4375 40.1987V55.0174C49.4375 55.3903 49.7399 55.6927 50.1128 55.6927H52.2069C52.5799 55.6927 52.8822 55.3903 52.8822 55.0174V40.1987C52.8822 39.8257 52.5799 39.5234 52.2069 39.5234Z" fill="#064E43"/>
<path d="M92.0787 52.9535L97.2689 52.9608C97.507 52.9608 97.6551 53.0758 97.7135 53.3057C97.8746 53.9374 97.8681 54.6066 97.694 55.3135C97.6462 55.5071 97.5223 55.6055 97.3223 55.6087C94.7578 55.6492 92.2176 55.6492 89.7017 55.6087C89.347 55.603 89.0952 55.5492 88.9462 55.4472C88.7049 55.282 88.5842 55.02 88.5842 54.6613C88.5801 49.8132 88.5781 44.9478 88.5781 40.0649C88.5781 39.8366 88.6887 39.6932 88.9097 39.6349C89.7511 39.4147 90.609 39.4029 91.4835 39.5997C91.7079 39.6499 91.8585 39.7459 91.9354 39.8876C92.005 40.0147 92.0326 40.1564 92.018 40.3127C91.9977 40.5411 91.9876 40.6589 91.9876 40.6662C92.0038 44.7417 92.0135 48.8172 92.0168 52.8928C92.0168 52.9268 92.0447 52.9535 92.0787 52.9535Z" fill="#064E43"/>
<path d="M98.5911 55.5492C98.3563 55.4075 98.2992 55.169 98.4198 54.8338C100.143 50.0821 101.873 45.3328 103.611 40.586C103.732 40.2564 103.835 40.0212 103.92 39.8803C104.04 39.6819 104.24 39.5702 104.52 39.5451C105.772 39.4333 106.862 39.4337 107.792 39.5463C108.073 39.5803 108.279 39.7135 108.409 39.9459C108.41 39.9475 108.489 40.1621 108.647 40.5896C110.354 45.2142 112.054 49.8408 113.747 54.4694C113.845 54.7366 113.897 55.007 113.903 55.2807C113.907 55.467 113.817 55.5743 113.632 55.6026C112.606 55.7589 111.619 55.7553 110.672 55.5917C110.503 55.5617 110.39 55.4674 110.334 55.3087L109.191 52.0632C109.168 52 109.11 51.9587 109.046 51.9587H102.901C102.84 51.9587 102.786 51.9976 102.767 52.0559C102.442 53.0592 102.098 54.0718 101.733 55.0937C101.673 55.2645 101.591 55.3957 101.489 55.4872C101.407 55.5601 101.271 55.6091 101.081 55.6342C100.692 55.6852 100.3 55.7079 99.9065 55.7022C99.892 55.7022 99.7086 55.7051 99.3563 55.7107C99.0332 55.7164 98.7781 55.6625 98.5911 55.5492ZM105.932 42.7153L103.604 49.3582C103.586 49.408 103.625 49.4602 103.678 49.4602L108.23 49.4395C108.288 49.4395 108.328 49.3824 108.309 49.329L106.014 42.7153C105.987 42.6367 105.96 42.6367 105.932 42.7153Z" fill="#064E43"/>
<path d="M37.8131 49.1604C37.7985 52.474 37.7961 54.4247 37.8058 55.0126C37.8107 55.296 37.7119 55.4818 37.5094 55.5701C37.4463 55.5976 37.2628 55.63 36.9592 55.6673C36.2069 55.7612 35.4559 55.7353 34.706 55.5895C34.5198 55.5531 34.4173 55.4405 34.3987 55.2519C34.3712 54.9822 34.3574 54.6899 34.3574 54.3749C34.3688 49.8402 34.3744 45.3056 34.3744 40.7709C34.3744 39.966 34.7692 39.5607 35.5587 39.555C37.2794 39.5413 39.0002 39.5534 40.7209 39.5915C41.8149 39.615 42.8551 39.8587 43.8413 40.3227C44.7021 40.7284 45.3094 41.3479 45.6633 42.1811C45.9613 42.8856 46.0621 43.6804 45.9658 44.5654C45.7722 46.3445 44.7276 47.5276 42.832 48.1146C42.7291 48.1462 42.7259 48.1855 42.8223 48.2324C43.466 48.5466 43.9847 49.0013 44.3782 49.5965C44.6001 49.9325 44.794 50.2836 44.96 50.6496C45.109 50.9775 45.186 51.1468 45.1908 51.1573C45.7844 52.4068 46.335 53.6749 46.8427 54.9616C46.9342 55.1923 46.914 55.3709 46.782 55.4972C46.6994 55.5766 46.5545 55.6272 46.3472 55.6491C45.939 55.6912 45.3896 55.7118 44.6989 55.711C44.2179 55.7102 43.8247 55.6632 43.5195 55.5701C43.4818 55.558 43.4478 55.5349 43.4235 55.5045C43.302 55.3531 43.2045 55.1863 43.1308 55.0041C42.5704 53.6186 41.9769 52.2472 41.3501 50.8901C41.1517 50.4609 40.8877 50.0775 40.5582 49.7398C40.1962 49.3689 39.7545 49.1633 39.233 49.1228C38.7803 49.0872 38.3273 49.0782 37.8738 49.0961C37.8398 49.0973 37.8131 49.1264 37.8131 49.1604ZM41.7607 42.6463C41.3509 42.3418 40.8728 42.1588 40.3262 42.0973C40.2501 42.0884 39.8456 42.0742 39.1127 42.0548C38.7071 42.0443 38.3018 42.041 37.8969 42.0451C37.8629 42.0463 37.8349 42.073 37.8349 42.107L37.807 46.5392C37.8058 46.5732 37.8337 46.6012 37.869 46.6012C38.5556 46.6012 39.2229 46.5984 39.8707 46.5927C40.4602 46.587 40.974 46.4558 41.4121 46.1991C42.0242 45.8404 42.3684 45.3242 42.4445 44.6505C42.4882 44.2666 42.4676 43.9091 42.3826 43.5779C42.2822 43.1901 42.0749 42.8795 41.7607 42.6463Z" fill="#064E43"/>
<path d="M81.1377 7.19916H104.702C109.934 7.19916 114.176 11.4409 114.176 16.6734V34.893H90.6119C85.3794 34.893 81.1377 30.6513 81.1377 25.4188V7.19916Z" fill="url(#paint0_radial_514_43231)"/>
<path d="M152.438 7.19916H128.873C123.641 7.19916 119.399 11.4409 119.399 16.6734V34.893H142.963C148.196 34.893 152.438 30.6513 152.438 25.4188V7.19916Z" fill="url(#paint1_radial_514_43231)"/>
<path d="M119.399 40.1159H144.421C148.849 40.1159 152.438 43.7051 152.438 48.1325V61.6151H127.659C123.097 61.6151 119.399 57.9171 119.399 53.3555V40.1159Z" fill="url(#paint2_radial_514_43231)"/>
<defs>
<radialGradient id="paint0_radial_514_43231" cx="0" cy="0" r="1" gradientUnits="userSpaceOnUse" gradientTransform="translate(81.1377 21.0461) scale(33.0383 39.4141)">
<stop stop-color="#9BC97E"/>
<stop offset="0.676905" stop-color="#407C27"/>
</radialGradient>
<radialGradient id="paint1_radial_514_43231" cx="0" cy="0" r="1" gradientUnits="userSpaceOnUse" gradientTransform="translate(120.249 34.893) rotate(-38.6874) scale(39.4471 47.0597)">
<stop stop-color="#F8FC79"/>
<stop offset="1" stop-color="#B5AE52"/>
</radialGradient>
<radialGradient id="paint2_radial_514_43231" cx="0" cy="0" r="1" gradientUnits="userSpaceOnUse" gradientTransform="translate(119.399 40.1159) rotate(33.0535) scale(39.4175 36.5058)">
<stop stop-color="#99C685"/>
<stop offset="0.592464" stop-color="#005A1A"/>
</radialGradient>
</defs>
</svg>
